<svg width='200' height='200' fill="#fff" xmlns="http://www.w3.org/2000/svg" xmlns:xlink="http://www.w3.org/1999/xlink" version="1.1" x="0px" y="0px" viewBox="0 0 570 570" enable-background="new 0 0 100 100" xml:space="preserve">

<g>
	<path class="st0" d="M95.1,3.9c9.3,0.4,18.6,1.1,28,2.2c-9.3,1.8-18.5,4-27.7,6.5C86,10.7,76.7,9.2,67.3,8.1
		C76.6,6.3,85.9,4.9,95.1,3.9"/>
	<path class="st0" d="M63.1,10.9c9.7,1.2,19.4,2.7,29.2,4.5c-9.8,2.7-19.4,5.7-28.8,9.1c-9.5-2.7-19.3-5-29.3-6.9
		C43.8,15,53.4,12.8,63.1,10.9"/>
	<path class="st0" d="M127.5,8.5c9.7,1.2,19.4,2.7,29.2,4.5c-9.8,2.7-19.4,5.7-28.8,9.1c-9.5-2.7-19.3-5-29.3-6.9
		C108.3,12.5,117.9,10.3,127.5,8.5"/>
	<path class="st0" d="M31,20.4c10.1,2,20.1,4.3,29.8,7C51,31,41.3,34.9,31.7,39.3c-9.8-3.7-19.8-6.9-29.9-9.7
		C11.3,26.2,21.1,23.2,31,20.4"/>
	<path class="st0" d="M95.5,18.1c10.2,2,20.1,4.4,29.8,7c-9.8,3.5-19.6,7.5-29.2,11.8c-9.8-3.7-19.8-6.9-29.9-9.7
		C75.7,23.9,85.5,20.8,95.5,18.1"/>
	<path class="st0" d="M159.9,15.7c10.1,2,20.1,4.3,29.8,7c-9.8,3.6-19.6,7.5-29.2,11.8c-9.8-3.7-19.8-6.9-29.9-9.7
		C140.3,21.5,150,18.5,159.9,15.7"/>
	<path class="st0" d="M63.6,30.2c10.2,2.9,20.3,6.1,30.3,9.8c-9.9,4.5-19.7,9.5-29.3,14.9c-10-4.7-20.2-8.9-30.4-12.7
		C43.8,37.8,53.6,33.8,63.6,30.2"/>
	<path class="st0" d="M128,27.8c10.2,2.9,20.3,6.1,30.3,9.8C148.4,42,138.7,47,129,52.4c-10-4.7-20.2-8.9-30.4-12.7
		C108.3,35.3,118.1,31.3,128,27.8"/>
	<path class="st0" d="M96.3,42.6c10.2,3.8,20.4,8,30.6,12.7c-10.2,5.7-20,11.8-29.5,18.3c-9.9-5.7-20.2-11.1-30.7-16
		C76.4,52.2,86.3,47.2,96.3,42.6"/>
	<path class="st0" d="M207.6,12.9L207.6,12.9h-5.4v22.6h5.4V12.9L207.6,12.9z M221.4,12.9L221.4,12.9h-3.8v22.6h5V20.3l19.1,15.2
		h3.8V12.9h-5v15L221.4,12.9L221.4,12.9z M259.4,12.9L259.4,12.9h-3.8v22.6h5V20.3l19.1,15.2h3.8V12.9h-5v15L259.4,12.9L259.4,12.9z
		 M293.1,30.2L293.1,30.2c0,0,0,0.3,0,0.9l0,0c0,0,0,0.5,0.1,1.1l0,0c0,0,0.1,0.6,0.3,1.2l0,0c0,0,0.2,0.6,0.6,1l0,0
		c0,0,0.6,0.6,1.9,0.9l0,0c0,0,1.2,0.3,2.9,0.3l0,0h17.4c0,0,1.2,0,2.5-0.2l0,0c0,0,1.4-0.2,2.2-1.1l0,0c0,0,0.7-0.8,0.9-1.9l0,0
		c0,0,0.2-1.1,0.2-1.9l0,0V18.3c0,0,0-0.4,0-0.9l0,0c0,0,0-0.5-0.1-1.1l0,0c0,0-0.1-0.6-0.3-1.2l0,0c0,0-0.2-0.6-0.6-1l0,0
		c0,0-0.5-0.4-1.1-0.7l0,0c0,0-0.6-0.2-1.3-0.3l0,0c0,0-0.7-0.1-1.3-0.1l0,0c0,0-0.6,0-1,0l0,0h-17.7c0,0-3.3,0-4.4,1.1l0,0
		c0,0-0.5,0.4-0.7,1l0,0c0,0-0.3,0.6-0.4,1.2l0,0c0,0-0.1,0.6-0.1,1.2l0,0c0,0,0,0.6,0,0.9l0,0V30.2L293.1,30.2z M298.5,31.3
		L298.5,31.3v-14h18.3v14H298.5L298.5,31.3z M342.3,35.5L342.3,35.5h3.8l13.1-22.6h-5.7l-9,16.4l-9.6-16.4h-6.2L342.3,35.5
		L342.3,35.5z M375.5,12.9L375.5,12.9l-13.4,22.6h5.5l2.8-5h14.9l2.8,5h6.2l-13.6-22.6H375.5L375.5,12.9z M372.5,26.6L372.5,26.6
		l5.3-9.4l5.3,9.4H372.5L372.5,26.6z M400,12.9L400,12.9v22.6h5.4v-8.8h14.9c0,0,0.9,0,2-0.2l0,0c0,0,1.1-0.2,2-0.9l0,0
		c0,0,0.9-0.7,1.1-1.6l0,0c0,0,0.2-0.9,0.2-1.7l0,0v-5.1c0,0,0-0.7-0.1-1.5l0,0c0,0-0.1-0.8-0.6-1.4l0,0c0,0-0.5-0.6-1.6-1.1l0,0
		c0,0-1.1-0.4-2.9-0.4l0,0H400L400,12.9z M405.4,17L405.4,17h12.5c0,0,0.5,0,1,0.1l0,0c0,0,0.6,0.1,1,0.4l0,0c0,0,0.3,0.3,0.4,0.6
		l0,0c0,0,0.1,0.4,0.1,0.7l0,0V21c0,0,0,0.4-0.1,0.8l0,0c0,0-0.1,0.4-0.5,0.6l0,0c0,0-0.4,0.3-0.9,0.3l0,0c0,0-0.5,0.1-0.8,0.1l0,0
		h-12.9V17L405.4,17z M433.5,12.9L433.5,12.9v22.6h5.4v-8.8h14.9c0,0,0.9,0,2-0.2l0,0c0,0,1.1-0.2,2-0.9l0,0c0,0,0.9-0.7,1.1-1.6
		l0,0c0,0,0.2-0.9,0.2-1.7l0,0v-5.1c0,0,0-0.7-0.1-1.5l0,0c0,0-0.1-0.8-0.6-1.4l0,0c0,0-0.5-0.6-1.6-1.1l0,0c0,0-1.1-0.4-2.9-0.4
		l0,0H433.5L433.5,12.9z M438.9,17L438.9,17h12.5c0,0,0.5,0,1.1,0.1l0,0c0,0,0.6,0.1,1,0.4l0,0c0,0,0.3,0.3,0.4,0.6l0,0
		c0,0,0.1,0.4,0.1,0.7l0,0V21c0,0,0,0.4-0.1,0.8l0,0c0,0-0.1,0.4-0.5,0.6l0,0c0,0-0.4,0.3-0.9,0.3l0,0c0,0-0.5,0.1-0.8,0.1l0,0
		h-12.9V17L438.9,17z M480.4,17L480.4,17h10.9v-4H464v4H475v18.6h5.4V17L480.4,17z M503.9,12.9L503.9,12.9h-5.4v22.6h5.4V12.9
		L503.9,12.9z M524.5,35.5L524.5,35.5h3.8l13.1-22.6h-5.7l-9,16.4l-9.5-16.4h-6.2L524.5,35.5L524.5,35.5z M547.7,12.9L547.7,12.9
		v22.6h24.5v-4.3h-19.1v-5.4h11v-4h-11V17h18.8v-4H547.7L547.7,12.9z"/>
	<path class="st0" d="M221.7,52.1L221.7,52.1v12.3h-2V52.1H221.7L221.7,52.1z M220.7,47.3L220.7,47.3c0,0,0.6,0,1,0.4l0,0
		c0,0,0.3,0.4,0.3,0.9l0,0c0,0,0,0.6-0.4,1l0,0c0,0-0.3,0.3-0.9,0.3l0,0c0,0-0.6,0-1-0.4l0,0c0,0-0.3-0.4-0.3-0.9l0,0
		c0,0,0-0.6,0.4-1l0,0C219.8,47.6,220.1,47.3,220.7,47.3L220.7,47.3L220.7,47.3z M225.7,52.1L225.7,52.1h2v1.7c0,0,0.7-0.9,1.4-1.4
		l0,0c0,0,1-0.7,2.3-0.7l0,0c0,0,1.7,0,2.8,1l0,0c0,0,0.7,0.7,0.9,1.6l0,0c0,0,0.2,0.7,0.2,1.7l0,0v8.3h-2v-7.8c0,0,0-1.5-0.4-2.1
		l0,0c0,0-0.6-0.8-1.9-0.8l0,0c0,0-1.4,0-2.3,1l0,0c0,0-0.8,0.9-0.8,2.2l0,0v7.5h-2V52.1L225.7,52.1z M239.3,52.1L239.3,52.1h2v1.7
		c0,0,0.7-0.9,1.4-1.4l0,0c0,0,1-0.7,2.3-0.7l0,0c0,0,1.7,0,2.8,1l0,0c0,0,0.7,0.7,0.9,1.6l0,0c0,0,0.1,0.7,0.1,1.7l0,0v8.3h-2v-7.8
		c0,0,0-1.5-0.4-2.1l0,0c0,0-0.6-0.8-1.9-0.8l0,0c0,0-1.4,0-2.3,1l0,0c0,0-0.8,0.9-0.8,2.2l0,0v7.5h-2V52.1L239.3,52.1z M258.2,51.8
		L258.2,51.8c0,0,2.9,0,4.8,2.2l0,0c0,0,1.4,1.7,1.4,4.3l0,0c0,0,0,2.8-2,4.7l0,0c0,0-1.8,1.7-4.3,1.7l0,0c0,0-1.9,0-3.4-1l0,0
		c0,0-2.8-1.8-2.8-5.5l0,0c0,0,0-3.1,1.9-4.8l0,0C253.8,53.4,255.6,51.8,258.2,51.8L258.2,51.8L258.2,51.8z M258.2,53.6L258.2,53.6
		c0,0-2,0-3.2,1.4l0,0c0,0-1,1.2-1,3.2l0,0c0,0,0,2.1,1.2,3.3l0,0c0,0,1.2,1.2,3,1.2l0,0c0,0,2.1,0,3.3-1.6l0,0c0,0,0.9-1.2,0.9-3
		l0,0c0,0,0-2.2-1.2-3.4l0,0C261.1,54.8,259.9,53.6,258.2,53.6L258.2,53.6L258.2,53.6z M274.8,52.1L274.8,52.1h2.1l-4.6,12.3h-2.1
		l-4.5-12.3h2.1l3.5,9.4L274.8,52.1L274.8,52.1z M288.4,54.1L288.4,54.1v-2h2v12.3h-2V62c0,0-1.8,2.7-4.5,2.7l0,0c0,0-2.6,0-4.3-1.9
		l0,0c0,0-1.5-1.7-1.5-4.5l0,0c0,0,0-1.9,0.8-3.5l0,0c0,0,0.7-1.4,2.2-2.3l0,0c0,0,1.3-0.7,2.8-0.7l0,0c0,0,1.6,0,2.9,0.8l0,0
		C286.8,52.6,287.6,53.1,288.4,54.1L288.4,54.1L288.4,54.1z M284.3,53.6L284.3,53.6c0,0-1.9,0-3,1.5l0,0c0,0-1,1.4-1,3.2l0,0
		c0,0,0,2.2,1.3,3.5l0,0c0,0,1.1,1.1,2.6,1.1l0,0c0,0,1.9,0,3.1-1.6l0,0c0,0,1.1-1.4,1.1-3.2l0,0c0,0,0-2-1.1-3.2l0,0
		C287.3,54.9,286.1,53.6,284.3,53.6L284.3,53.6L284.3,53.6z M296.6,53.8L296.6,53.8v8c0,0,0,0.4,0.2,0.6l0,0c0,0,0.2,0.2,0.7,0.2
		l0,0h0.9v1.8h-1.9c0,0-1,0-1.5-0.5l0,0c0,0-0.5-0.4-0.5-1.5l0,0v-8.6h-1.7V52h1.7v-3.9h2V52h1.8v1.8H296.6L296.6,53.8z M312.8,58.9
		L312.8,58.9h-10.3c0,0,0.2,1.4,0.8,2.3l0,0c0,0,1.2,1.7,3.3,1.7l0,0c0,0,1.3,0,2.6-0.9l0,0c0,0,0.7-0.5,1.1-1.2l0,0l1.8,0.7
		c0,0-0.6,1.2-1.6,1.9l0,0c0,0-1.7,1.4-3.9,1.4l0,0c0,0-3,0-4.8-2.2l0,0c0,0-1.5-1.7-1.5-4.3l0,0c0,0,0-2.9,1.8-4.7l0,0
		c0,0,1.7-1.8,4.4-1.8l0,0c0,0,3.1,0,4.9,2.4l0,0c0,0,1.3,1.7,1.3,3.9l0,0C312.9,58.1,312.9,58.3,312.8,58.9L312.8,58.9L312.8,58.9z
		 M310.7,57.4L310.7,57.4c0,0-0.1-1.3-0.7-2.1l0,0c0,0-0.5-0.7-1.4-1.2l0,0c0,0-0.9-0.5-2-0.5l0,0c0,0-1.4,0-2.5,0.9l0,0
		c0,0-1.2,0.9-1.5,2.9l0,0H310.7L310.7,57.4z M316.8,61.8L316.8,61.8c0,0,0.6,0,1,0.4l0,0c0,0,0.4,0.4,0.4,1l0,0c0,0,0,0.6-0.5,1.1
		l0,0c0,0-0.4,0.3-0.9,0.3l0,0c0,0-0.6,0-1-0.4l0,0c0,0-0.4-0.4-0.4-1l0,0c0,0,0-0.6,0.5-1.1l0,0C315.9,62.1,316.3,61.8,316.8,61.8
		L316.8,61.8L316.8,61.8z M332.1,53.8L332.1,53.8v8c0,0,0,0.4,0.2,0.6l0,0c0,0,0.2,0.2,0.7,0.2l0,0h0.9v1.8h-1.9c0,0-1,0-1.5-0.5
		l0,0c0,0-0.5-0.4-0.5-1.5l0,0v-8.6h-1.7V52h1.7v-3.9h2V52h1.8v1.8H332.1L332.1,53.8z M336.9,52.1L336.9,52.1h2v2.1
		c0,0,0.5-1.1,1.1-1.6l0,0c0,0,1-0.7,2.3-0.7l0,0c0,0,0.2,0,0.5,0l0,0v2c0,0-0.4,0-0.6,0l0,0c0,0-1.7,0-2.7,1.4l0,0
		c0,0-0.5,0.7-0.6,1.5l0,0c0,0-0.1,0.6-0.1,1.4l0,0v6.3h-2V52.1L336.9,52.1z M354.6,54.1L354.6,54.1v-2h2v12.3h-2V62
		c0,0-1.8,2.7-4.5,2.7l0,0c0,0-2.6,0-4.3-1.9l0,0c0,0-1.5-1.7-1.5-4.5l0,0c0,0,0-1.9,0.8-3.5l0,0c0,0,0.7-1.4,2.2-2.3l0,0
		c0,0,1.3-0.7,2.8-0.7l0,0c0,0,1.6,0,2.9,0.8l0,0C353.1,52.6,353.8,53.1,354.6,54.1L354.6,54.1L354.6,54.1z M350.5,53.6L350.5,53.6
		c0,0-1.9,0-3,1.5l0,0c0,0-1,1.4-1,3.2l0,0c0,0,0,2.2,1.3,3.5l0,0c0,0,1.1,1.1,2.6,1.1l0,0c0,0,1.9,0,3.1-1.6l0,0
		c0,0,1.1-1.4,1.1-3.2l0,0c0,0,0-2-1.1-3.2l0,0C353.5,54.9,352.3,53.6,350.5,53.6L350.5,53.6L350.5,53.6z M360.7,52.1L360.7,52.1h2
		v1.7c0,0,0.7-0.9,1.4-1.4l0,0c0,0,1-0.7,2.3-0.7l0,0c0,0,1.7,0,2.8,1l0,0c0,0,0.7,0.7,0.9,1.6l0,0c0,0,0.1,0.7,0.1,1.7l0,0v8.3h-2
		v-7.8c0,0,0-1.5-0.4-2.1l0,0c0,0-0.6-0.8-1.9-0.8l0,0c0,0-1.4,0-2.3,1l0,0c0,0-0.8,0.9-0.8,2.2l0,0v7.5h-2V52.1L360.7,52.1z
		 M382,55.4L382,55.4h-2c0,0,0-0.6-0.2-1l0,0c0,0-0.6-1-2.1-1l0,0c0,0-1.1,0-1.7,0.5l0,0c0,0-0.6,0.5-0.6,1.3l0,0c0,0,0,0.7,0.4,1
		l0,0c0,0,0.4,0.4,1.1,0.7l0,0c0,0,0.5,0.2,1.3,0.4l0,0c0,0,2.2,0.6,3,1.4l0,0c0,0,1,1,1,2.4l0,0c0,0,0,1.8-1.5,2.8l0,0
		c0,0-1.1,0.8-2.9,0.8l0,0c0,0-2.8,0-3.9-1.7l0,0c0,0-0.6-0.8-0.7-2.1l0,0h2c0,0,0.1,0.8,0.5,1.3l0,0c0,0,0.7,0.8,2.1,0.8l0,0
		c0,0,1,0,1.6-0.5l0,0c0,0,0.6-0.5,0.6-1.3l0,0c0,0,0-0.8-0.7-1.4l0,0c0,0-0.5-0.4-2-0.8l0,0c0,0-2-0.5-2.9-1.3l0,0c0,0-1-0.9-1-2.4
		l0,0c0,0,0-1.8,1.5-2.8l0,0c0,0,1.1-0.8,2.8-0.8l0,0c0,0,2.4,0,3.5,1.5l0,0C381.3,53.2,381.9,54.1,382,55.4L382,55.4L382,55.4z
		 M387.5,53.9L387.5,53.9v10.5h-2V53.9h-1.7v-1.8h1.7v-1.7c0,0,0-1.8,0.8-2.7l0,0c0,0,1-1.1,2.6-1.1l0,0c0,0,0.2,0,0.6,0l0,0v1.8
		c0,0-1,0.1-1.3,0.4l0,0c0,0-0.6,0.4-0.6,1.7l0,0v1.7h1.9v1.8H387.5L387.5,53.9z M397.5,51.8L397.5,51.8c0,0,2.9,0,4.8,2.2l0,0
		c0,0,1.4,1.7,1.4,4.3l0,0c0,0,0,2.8-2,4.7l0,0c0,0-1.8,1.7-4.3,1.7l0,0c0,0-1.9,0-3.4-1l0,0c0,0-2.8-1.8-2.8-5.5l0,0
		c0,0,0-3.1,1.9-4.8l0,0C393.1,53.4,394.9,51.8,397.5,51.8L397.5,51.8L397.5,51.8z M397.5,53.6L397.5,53.6c0,0-2,0-3.2,1.4l0,0
		c0,0-1,1.2-1,3.2l0,0c0,0,0,2.1,1.2,3.3l0,0c0,0,1.2,1.2,3,1.2l0,0c0,0,2.1,0,3.3-1.6l0,0c0,0,0.9-1.2,0.9-3l0,0c0,0,0-2.2-1.2-3.4
		l0,0C400.4,54.8,399.2,53.6,397.5,53.6L397.5,53.6L397.5,53.6z M406.8,52.1L406.8,52.1h2v2.1c0,0,0.5-1.1,1.1-1.6l0,0
		c0,0,1-0.7,2.3-0.7l0,0c0,0,0.2,0,0.5,0l0,0v2c0,0-0.3,0-0.6,0l0,0c0,0-1.7,0-2.7,1.4l0,0c0,0-0.5,0.7-0.6,1.5l0,0
		c0,0-0.1,0.6-0.1,1.4l0,0v6.3h-2V52.1L406.8,52.1z M415.3,52.1L415.3,52.1h2v1.7c0,0,0.6-0.9,1.3-1.4l0,0c0,0,1-0.6,2.2-0.6l0,0
		c0,0,1.3,0,2.3,0.7l0,0c0,0,0.6,0.5,1.1,1.5l0,0c0,0,0.6-1.1,1.4-1.6l0,0c0,0,1-0.7,2.5-0.7l0,0c0,0,2.1,0,3.1,1.3l0,0
		c0,0,0.5,0.7,0.7,1.6l0,0c0,0,0.1,0.7,0.1,1.9l0,0v7.9h-2V57c0,0,0-1.3-0.1-1.7l0,0c0,0-0.2-0.9-0.8-1.3l0,0c0,0-0.7-0.4-1.6-0.4
		l0,0c0,0-1.4,0-2.2,1l0,0c0,0-0.6,0.9-0.6,2.4l0,0v7.4h-2V57c0,0,0-1.6-0.4-2.4l0,0c0,0-0.6-1.1-2-1.1l0,0c0,0-1.3,0-2.1,1l0,0
		c0,0-0.7,0.9-0.7,2.5l0,0v7.4h-2L415.3,52.1L415.3,52.1z M436.9,61.8L436.9,61.8c0,0,0.6,0,1,0.4l0,0c0,0,0.4,0.4,0.4,1l0,0
		c0,0,0,0.6-0.5,1.1l0,0c0,0-0.4,0.3-0.9,0.3l0,0c0,0-0.6,0-1-0.4l0,0c0,0-0.4-0.4-0.4-1l0,0c0,0,0-0.6,0.5-1.1l0,0
		C436,62.1,436.4,61.8,436.9,61.8L436.9,61.8L436.9,61.8z M461.4,58.9L461.4,58.9h-10.3c0,0,0.2,1.4,0.8,2.3l0,0
		c0,0,1.2,1.7,3.3,1.7l0,0c0,0,1.4,0,2.6-0.9l0,0c0,0,0.7-0.5,1.1-1.2l0,0l1.8,0.7c0,0-0.6,1.2-1.6,1.9l0,0c0,0-1.7,1.4-3.9,1.4l0,0
		c0,0-3,0-4.8-2.2l0,0c0,0-1.5-1.7-1.5-4.3l0,0c0,0,0-2.9,1.8-4.7l0,0c0,0,1.7-1.8,4.4-1.8l0,0c0,0,3.1,0,4.9,2.4l0,0
		c0,0,1.3,1.7,1.3,3.9l0,0C461.4,58.1,461.4,58.3,461.4,58.9L461.4,58.9L461.4,58.9z M459.3,57.4L459.3,57.4c0,0-0.1-1.3-0.7-2.1
		l0,0c0,0-0.5-0.7-1.4-1.2l0,0c0,0-0.9-0.5-2-0.5l0,0c0,0-1.4,0-2.5,0.9l0,0c0,0-1.2,0.9-1.5,2.9l0,0H459.3L459.3,57.4z M464.4,52.1
		L464.4,52.1h2v1.7c0,0,0.6-0.9,1.3-1.4l0,0c0,0,1-0.6,2.2-0.6l0,0c0,0,1.3,0,2.3,0.7l0,0c0,0,0.6,0.5,1.1,1.5l0,0
		c0,0,0.6-1.1,1.4-1.6l0,0c0,0,1.1-0.7,2.5-0.7l0,0c0,0,2.1,0,3.1,1.3l0,0c0,0,0.5,0.7,0.7,1.6l0,0c0,0,0.1,0.7,0.1,1.9l0,0v7.9h-2
		V57c0,0,0-1.3-0.1-1.7l0,0c0,0-0.2-0.9-0.8-1.3l0,0c0,0-0.7-0.4-1.6-0.4l0,0c0,0-1.4,0-2.2,1l0,0c0,0-0.6,0.9-0.6,2.4l0,0v7.4h-2
		V57c0,0,0-1.6-0.4-2.4l0,0c0,0-0.6-1.1-2-1.1l0,0c0,0-1.3,0-2.1,1l0,0c0,0-0.7,0.9-0.7,2.5l0,0v7.4h-2L464.4,52.1L464.4,52.1z
		 M485,52.1L485,52.1h2v2.2c0,0,0.7-1.2,1.5-1.7l0,0c0,0,1.2-0.9,3-0.9l0,0c0,0,2.2,0,3.7,1.4l0,0c0,0,2.1,1.8,2.1,5l0,0
		c0,0,0,3.1-1.9,5l0,0c0,0-1.6,1.6-3.9,1.6l0,0c0,0-1.4,0-2.7-0.6l0,0c0,0-1-0.5-1.8-1.6l0,0v7.7h-2V52.1L485,52.1z M491.2,53.6
		L491.2,53.6c0,0-2.2,0-3.4,1.8l0,0c0,0-0.8,1.2-0.8,3l0,0c0,0,0,2.2,1.3,3.4l0,0c0,0,1.1,1.1,2.8,1.1l0,0c0,0,2.2,0,3.3-1.7l0,0
		c0,0,0.8-1.2,0.8-3l0,0c0,0,0-2.2-1.1-3.3l0,0C494.1,54.9,492.9,53.6,491.2,53.6L491.2,53.6L491.2,53.6z M505.7,51.8L505.7,51.8
		c0,0,2.9,0,4.8,2.2l0,0c0,0,1.4,1.7,1.4,4.3l0,0c0,0,0,2.8-2,4.7l0,0c0,0-1.8,1.7-4.3,1.7l0,0c0,0-1.9,0-3.4-1l0,0
		c0,0-2.8-1.8-2.8-5.5l0,0c0,0,0-3.1,1.9-4.8l0,0C501.3,53.4,503.1,51.8,505.7,51.8L505.7,51.8L505.7,51.8z M505.7,53.6L505.7,53.6
		c0,0-2,0-3.2,1.4l0,0c0,0-1,1.2-1,3.2l0,0c0,0,0,2.1,1.2,3.3l0,0c0,0,1.2,1.2,3,1.2l0,0c0,0,2.1,0,3.3-1.6l0,0c0,0,0.9-1.2,0.9-3
		l0,0c0,0,0-2.2-1.2-3.4l0,0C508.6,54.8,507.4,53.6,505.7,53.6L505.7,53.6L505.7,53.6z M529.2,52.1L529.2,52.1h2.1l-4.4,12.3H525
		l-2.8-9.3l-3,9.3h-1.9l-4.2-12.3h2.1l3.2,9l2.8-9h2l2.8,9L529.2,52.1L529.2,52.1z M544.8,58.9L544.8,58.9h-10.3
		c0,0,0.2,1.4,0.8,2.3l0,0c0,0,1.2,1.7,3.3,1.7l0,0c0,0,1.4,0,2.6-0.9l0,0c0,0,0.7-0.5,1.1-1.2l0,0l1.8,0.7c0,0-0.6,1.2-1.6,1.9l0,0
		c0,0-1.7,1.4-3.9,1.4l0,0c0,0-3,0-4.8-2.2l0,0c0,0-1.5-1.7-1.5-4.3l0,0c0,0,0-2.9,1.8-4.7l0,0c0,0,1.7-1.8,4.4-1.8l0,0
		c0,0,3.1,0,4.9,2.4l0,0c0,0,1.3,1.7,1.3,3.9l0,0C544.9,58.1,544.9,58.3,544.8,58.9L544.8,58.9L544.8,58.9z M542.7,57.4L542.7,57.4
		c0,0-0.1-1.3-0.7-2.1l0,0c0,0-0.5-0.7-1.4-1.2l0,0c0,0-0.9-0.5-2-0.5l0,0c0,0-1.5,0-2.5,0.9l0,0c0,0-1.2,0.9-1.5,2.9l0,0H542.7
		L542.7,57.4z M547.8,52.1L547.8,52.1h2v2.1c0,0,0.5-1.1,1.1-1.6l0,0c0,0,1-0.7,2.3-0.7l0,0c0,0,0.2,0,0.5,0l0,0v2c0,0-0.3,0-0.6,0
		l0,0c0,0-1.7,0-2.7,1.4l0,0c0,0-0.5,0.7-0.6,1.5l0,0c0,0-0.1,0.6-0.1,1.4l0,0v6.3h-2V52.1L547.8,52.1z M557.3,61.8L557.3,61.8
		c0,0,0.6,0,1,0.4l0,0c0,0,0.4,0.4,0.4,1l0,0c0,0,0,0.6-0.5,1.1l0,0c0,0-0.4,0.3-0.9,0.3l0,0c0,0-0.6,0-1-0.4l0,0c0,0-0.4-0.4-0.4-1
		l0,0c0,0,0-0.6,0.5-1.1l0,0C556.4,62.1,556.8,61.8,557.3,61.8L557.3,61.8L557.3,61.8z"/>
</g>
</svg>